<svg xmlns="http://www.w3.org/2000/svg" width="32" height="32" viewBox="0 0 32 32">
  <path
    fill="#fff"
    fill-rule="evenodd"
    transform="translate(3 3) scale(1.857142857)"
    d="M10.7803 4.28033c.2929-.29289.2929-.76777 0-1.06066s-.7677-.29289-1.06062 0L5.18126 7.75809c-.00391.00374-.00779.00754-.01163.01138-.00385.00385-.00764.00773-.01139.01163L.219677 12.7197c-.214499.2145-.278666.5371-.16258.8173.116086.2803.389563.463.69291.463H13.25c.4142 0 .75-.3358.75-.75s-.3358-.75-.75-.75H8.4639c-.14882-1.532-.75091-2.98576-1.72888-4.17436l4.04528-4.04531ZM5.66815 9.39252 2.56067 12.5h4.39445c-.13693-1.1338-.5822-2.2089-1.28697-3.10748Z"
  />
</svg>